<?xml version="1.0" standalone="no"?>
<!DOCTYPE svg PUBLIC "-//W3C//DTD SVG 20010904//EN"
 "http://www.w3.org/TR/2001/REC-SVG-20010904/DTD/svg10.dtd">
<svg version="1.0" xmlns="http://www.w3.org/2000/svg"
 width="512.000000pt" height="512.000000pt" viewBox="0 0 512.000000 512.000000"
 preserveAspectRatio="xMidYMid meet">

<g transform="translate(0.000000,512.000000) scale(0.100000,-0.100000)"
fill="#000000" stroke="none">
<path d="M4751 4058 c-33 -18 -287 -304 -1167 -1313 -619 -710 -1128 -1291
-1133 -1293 -5 -1 -250 266 -545 595 -296 329 -551 609 -567 622 -36 29 -115
39 -159 21 -42 -17 -88 -73 -96 -116 -14 -75 -1 -93 341 -473 179 -198 325
-364 325 -369 0 -10 -228 -275 -241 -280 -4 -2 -253 270 -554 603 -301 334
-561 615 -578 626 -39 23 -107 25 -153 3 -71 -34 -105 -142 -66 -211 9 -17
295 -339 634 -716 509 -565 624 -687 658 -701 99 -39 123 -23 334 219 98 113
181 207 186 210 4 2 92 -90 195 -205 222 -247 247 -263 345 -224 34 14 225
228 1227 1377 654 748 1199 1376 1213 1395 33 46 35 136 4 179 -24 33 -97 73
-134 73 -14 0 -45 -10 -69 -22z"/>
<path d="M3694 3926 c-36 -16 -22 0 -839 -936 -334 -382 -614 -711 -622 -730
-20 -45 -12 -109 17 -150 24 -34 89 -69 127 -70 74 -1 73 -2 805 837 394 450
711 822 721 845 58 126 -80 260 -209 204z"/>
</g>
</svg>
